<svg id="email" xmlns="http://www.w3.org/2000/svg" viewBox="1007.183 1340 76.423 68"><defs><style>.cls-1,.cls-2,.cls-3,.cls-8{fill:#fff}.cls-8{isolation:isolate}.cls-1{stroke:#a013a7}.cls-2{isolation:isolate}.cls-2,.cls-7{stroke:#a013a7}.cls-1,.cls-7{stroke-width:1.5px;isolation:isolate}.cls-3{stroke:#00075f;isolation:isolate}.cls-4{fill:#fcbfff}.cls-5{fill:#0010d8}.cls-6{fill:#420745}.cls-7{fill:rgba(0,0,0,0)}.cls-9{stroke:none}.cls-10{fill:none}</style></defs><g id="Symbol_6_1" data-name="Symbol 6 – 1" transform="translate(1 2)"><g id="Rectangle_35" data-name="Rectangle 35" class="cls-1" transform="translate(1006.183 1352.517)"><rect class="cls-9" width="76.423" height="53.483" rx="8"/><rect class="cls-10" x=".75" y=".75" width="74.923" height="51.983" rx="7.25"/></g><g id="Group_3" data-name="Group 3" transform="translate(1016.014 1338)"><g id="Rectangle_36" data-name="Rectangle 36" class="cls-2"><rect class="cls-9" width="58.652" height="51.955" rx="6"/><rect class="cls-10" x=".5" y=".5" width="57.652" height="50.955" rx="5.5"/></g><g id="Rectangle_37" data-name="Rectangle 37" class="cls-3"><path class="cls-9" d="M0 0h51.499v41.258H0z" transform="translate(3.576 7.64)"/><path class="cls-10" d="M.5.5h50.499v40.258H.5z" transform="translate(3.576 7.64)"/></g><ellipse id="Ellipse_2" data-name="Ellipse 2" class="cls-4" cx="1.16" cy="1.239" rx="1.16" ry="1.239" transform="translate(4.397 3.002)"/><ellipse id="Ellipse_3" data-name="Ellipse 3" class="cls-5" cx="1.16" cy="1.239" rx="1.16" ry="1.239" transform="translate(9.053 2.99)"/><ellipse id="Ellipse_4" data-name="Ellipse 4" class="cls-6" cx="1.16" cy="1.239" rx="1.16" ry="1.239" transform="translate(13.693 2.99)"/></g><path id="Path_20" data-name="Path 20" class="cls-7" d="M0 0l23.691 19.865" transform="translate(1010.994 1357.318)"/><path id="Path_19" data-name="Path 19" class="cls-7" d="M0 19.865L22.163 0" transform="translate(1054.427 1357.483)"/><path id="Path_16" data-name="Path 16" class="cls-8" d="M39.719 1.619L30.4 17.668s-5.8 7.164-10.7 8.032c-2.766.493-8.224-6.848-10.71-7.525s.488-5.015.735-6.482C10.242 8.613 35.8 1.619 39.719 1.619z" transform="rotate(-79.98 1335.05 100.71)"/><path id="Path_17" data-name="Path 17" class="cls-8" d="M0 0h38.966L28.578 27.8z" transform="rotate(94.01 -94.223 1180.654)"/><path id="Intersection_1" data-name="Intersection 1" class="cls-1" d="M4.775 23.536a11.952 11.952 0 0 1-5.362-1.262L22.455 3.6a17.788 17.788 0 0 1 21.465 0l23.221 18.82a11.955 11.955 0 0 1-5.061 1.116z" transform="translate(1011.425 1380.818)"/></g></svg>