<svg id="Symbol_10_1" data-name="Symbol 10 – 1" xmlns="http://www.w3.org/2000/svg" viewBox="294.22 -238.5 278 25.32"><defs><style>.cls-1,.cls-2{fill:#a013a7;stroke:rgba(0,0,0,0)}.cls-2{fill:#fff}</style></defs><path id="Path_25" data-name="Path 25" class="cls-1" d="M34.464-21.936a3.454 3.454 0 0 1 1.2-1.536A2.831 2.831 0 0 1 37.3-24a3.571 3.571 0 0 1 2.4.912 2.865 2.865 0 0 1 1.056 2.256 3.538 3.538 0 0 1-.288 1.3l-7.876 17.66A3.193 3.193 0 0 1 31.2-.264a3.986 3.986 0 0 1-2.016.552 3.944 3.944 0 0 1-2.04-.552 3.225 3.225 0 0 1-1.368-1.608L20.64-13.824 15.7-1.872a3.261 3.261 0 0 1-1.348 1.608 3.907 3.907 0 0 1-2.064.552 4.072 4.072 0 0 1-2.064-.552 3.193 3.193 0 0 1-1.392-1.608L1.008-19.536a3.284 3.284 0 0 1-.288-1.3 2.8 2.8 0 0 1 1.128-2.256A3.973 3.973 0 0 1 4.416-24a3.091 3.091 0 0 1 1.752.528 3.389 3.389 0 0 1 1.224 1.536l5.136 12.912L17.76-21.84a3.426 3.426 0 0 1 1.272-1.56 3.3 3.3 0 0 1 1.848-.552 3.525 3.525 0 0 1 1.872.528 3.212 3.212 0 0 1 1.3 1.584l5.324 12.816zm41.424 0a3.454 3.454 0 0 1 1.2-1.536A2.831 2.831 0 0 1 78.72-24a3.571 3.571 0 0 1 2.4.912 2.865 2.865 0 0 1 1.056 2.256 3.538 3.538 0 0 1-.288 1.3l-7.872 17.66a3.193 3.193 0 0 1-1.392 1.608 3.986 3.986 0 0 1-2.016.552 3.944 3.944 0 0 1-2.04-.552A3.225 3.225 0 0 1 67.2-1.872l-5.136-11.952L57.12-1.872a3.261 3.261 0 0 1-1.344 1.608 3.907 3.907 0 0 1-2.064.552 4.072 4.072 0 0 1-2.064-.552 3.193 3.193 0 0 1-1.392-1.608l-7.824-17.664a3.284 3.284 0 0 1-.288-1.3 2.8 2.8 0 0 1 1.128-2.256A3.973 3.973 0 0 1 45.84-24a3.091 3.091 0 0 1 1.752.528 3.389 3.389 0 0 1 1.224 1.536l5.136 12.912 5.232-12.816a3.426 3.426 0 0 1 1.272-1.56 3.3 3.3 0 0 1 1.848-.552 3.525 3.525 0 0 1 1.872.528 3.212 3.212 0 0 1 1.3 1.584L70.8-9.024z" transform="translate(294 -214)"/><path id="Path_23" data-name="Path 23" class="cls-1" d="M34.464-21.936a3.454 3.454 0 0 1 1.2-1.536A2.831 2.831 0 0 1 37.3-24a3.571 3.571 0 0 1 2.4.912 2.865 2.865 0 0 1 1.056 2.256 3.538 3.538 0 0 1-.288 1.3l-7.876 17.66A3.193 3.193 0 0 1 31.2-.264a3.986 3.986 0 0 1-2.016.552 3.944 3.944 0 0 1-2.04-.552 3.225 3.225 0 0 1-1.368-1.608L20.64-13.824 15.7-1.872a3.261 3.261 0 0 1-1.348 1.608 3.907 3.907 0 0 1-2.064.552 4.072 4.072 0 0 1-2.064-.552 3.193 3.193 0 0 1-1.392-1.608L1.008-19.536a3.284 3.284 0 0 1-.288-1.3 2.8 2.8 0 0 1 1.128-2.256A3.973 3.973 0 0 1 4.416-24a3.091 3.091 0 0 1 1.752.528 3.389 3.389 0 0 1 1.224 1.536l5.136 12.912L17.76-21.84a3.426 3.426 0 0 1 1.272-1.56 3.3 3.3 0 0 1 1.848-.552 3.525 3.525 0 0 1 1.872.528 3.212 3.212 0 0 1 1.3 1.584l5.324 12.816z" transform="translate(411 -214)"/><path id="Path_24" data-name="Path 24" class="cls-2" d="M11.08-20.04q4.08 0 6.06 2.02t1.98 6.14v9.76a2.257 2.257 0 0 1-.64 1.7 2.423 2.423 0 0 1-1.76.62 2.34 2.34 0 0 1-1.7-.64 2.234 2.234 0 0 1-.66-1.68V-3a5.219 5.219 0 0 1-2.14 2.44 6.419 6.419 0 0 1-3.38.88 7.848 7.848 0 0 1-3.56-.8 6.333 6.333 0 0 1-2.52-2.2 5.559 5.559 0 0 1-.92-3.12 4.942 4.942 0 0 1 1.1-3.4A6.611 6.611 0 0 1 6.52-11a32.6 32.6 0 0 1 6.84-.56h1v-.92a4.1 4.1 0 0 0-.84-2.86 3.574 3.574 0 0 0-2.72-.9 8.631 8.631 0 0 0-2.36.34q-1.2.34-2.84.98a4 4 0 0 1-1.52.52 1.5 1.5 0 0 1-1.18-.52 1.977 1.977 0 0 1-.46-1.36 2.048 2.048 0 0 1 .34-1.18 3.227 3.227 0 0 1 1.14-.94 13.039 13.039 0 0 1 3.34-1.2 17.234 17.234 0 0 1 3.82-.44zM9.84-3.28a4.272 4.272 0 0 0 3.26-1.34 4.847 4.847 0 0 0 1.26-3.46v-.84h-.72a27.594 27.594 0 0 0-4.16.24 4.039 4.039 0 0 0-2.12.84 2.139 2.139 0 0 0-.64 1.64 2.714 2.714 0 0 0 .9 2.1 3.174 3.174 0 0 0 2.22.82z" transform="translate(389 -214)"/><path id="Path_22" data-name="Path 22" class="cls-2" d="M18.08-5.84a1.574 1.574 0 0 1 1.3.64 2.585 2.585 0 0 1 .5 1.64 2.175 2.175 0 0 1-.4 1.26 3.237 3.237 0 0 1-1.12.98A14.33 14.33 0 0 1 15.2-.14a13.481 13.481 0 0 1-3.32.46A11.916 11.916 0 0 1 6.3-.92a8.682 8.682 0 0 1-3.66-3.54 10.97 10.97 0 0 1-1.28-5.42A11.112 11.112 0 0 1 2.6-15.2a9.09 9.09 0 0 1 3.44-3.62 9.641 9.641 0 0 1 5-1.3 9.147 9.147 0 0 1 4.7 1.18 8.056 8.056 0 0 1 3.14 3.36 11.017 11.017 0 0 1 1.12 5.1 1.922 1.922 0 0 1-.42 1.34 1.517 1.517 0 0 1-1.18.46H7.2a5.333 5.333 0 0 0 1.44 3.42 4.751 4.751 0 0 0 3.32 1.06 7.138 7.138 0 0 0 2.08-.28 20.1 20.1 0 0 0 2.04-.76q.56-.24 1.08-.42a2.861 2.861 0 0 1 .92-.18zM11.2-15.96a3.62 3.62 0 0 0-2.76 1.1 5.22 5.22 0 0 0-1.24 3.18h7.72a5.221 5.221 0 0 0-1.06-3.2 3.337 3.337 0 0 0-2.66-1.08zM31.08.32a19.746 19.746 0 0 1-4.24-.4 9.592 9.592 0 0 1-3.16-1.28 2.447 2.447 0 0 1-.92-.96 2.845 2.845 0 0 1-.32-1.36 2.315 2.315 0 0 1 .52-1.54 1.609 1.609 0 0 1 1.28-.62 3.162 3.162 0 0 1 1.04.18q.52.18 1.08.42a14.358 14.358 0 0 0 2.2.82 10.178 10.178 0 0 0 2.68.3 4.474 4.474 0 0 0 2.18-.44 1.337 1.337 0 0 0 .78-1.2 1.217 1.217 0 0 0-.34-.9 3.124 3.124 0 0 0-1.26-.62q-.92-.28-2.92-.68A11.014 11.014 0 0 1 24.56-10 4.774 4.774 0 0 1 23-13.8a5.2 5.2 0 0 1 1.1-3.24 7.316 7.316 0 0 1 3.02-2.26 10.9 10.9 0 0 1 4.32-.82 12.91 12.91 0 0 1 3.36.44 10.709 10.709 0 0 1 2.92 1.24 2.465 2.465 0 0 1 1.24 2.24 2.455 2.455 0 0 1-.52 1.6 1.591 1.591 0 0 1-1.28.64 4.685 4.685 0 0 1-2.2-.72 11.632 11.632 0 0 0-1.82-.78 6.447 6.447 0 0 0-1.94-.26 3.613 3.613 0 0 0-1.96.46 1.425 1.425 0 0 0-.72 1.26 1.385 1.385 0 0 0 .84 1.28 13.147 13.147 0 0 0 3.24.88 17.489 17.489 0 0 1 4.2 1.26A5.066 5.066 0 0 1 39-8.72a5.4 5.4 0 0 1 .68 2.84 5.287 5.287 0 0 1-2.34 4.52A10.521 10.521 0 0 1 31.08.32zm21.48 0a11.463 11.463 0 0 1-5.48-1.26 8.836 8.836 0 0 1-3.64-3.56 10.97 10.97 0 0 1-1.28-5.42 10.97 10.97 0 0 1 1.28-5.42 8.71 8.71 0 0 1 3.64-3.54 11.614 11.614 0 0 1 5.48-1.24 11.614 11.614 0 0 1 5.48 1.24 8.71 8.71 0 0 1 3.64 3.54 10.97 10.97 0 0 1 1.28 5.42 10.97 10.97 0 0 1-1.28 5.42 8.836 8.836 0 0 1-3.64 3.56A11.463 11.463 0 0 1 52.56.32zm0-4.6q4.4 0 4.4-5.64a6.624 6.624 0 0 0-1.14-4.24 3.963 3.963 0 0 0-3.26-1.4q-4.4 0-4.4 5.64t4.4 5.64zm38.28-15.84a6.229 6.229 0 0 1 4.92 1.94q1.72 1.94 1.72 6.34v9.24a2.638 2.638 0 0 1-.84 2.12 3.2 3.2 0 0 1-2.16.72 3.3 3.3 0 0 1-2.16-.72 2.58 2.58 0 0 1-.88-2.12v-9.32a4.233 4.233 0 0 0-.66-2.7 2.5 2.5 0 0 0-2.02-.78 3.359 3.359 0 0 0-2.68 1.16 4.807 4.807 0 0 0-1 3.24v8.4a2.638 2.638 0 0 1-.84 2.12 3.2 3.2 0 0 1-2.16.72 3.3 3.3 0 0 1-2.16-.72 2.58 2.58 0 0 1-.88-2.12v-9.32a4.233 4.233 0 0 0-.66-2.7 2.5 2.5 0 0 0-2.02-.78 3.359 3.359 0 0 0-2.68 1.16 4.807 4.807 0 0 0-1 3.24v8.4a2.608 2.608 0 0 1-.86 2.12 3.22 3.22 0 0 1-2.14.72 3.3 3.3 0 0 1-2.16-.72 2.58 2.58 0 0 1-.88-2.12v-14.68a2.462 2.462 0 0 1 .9-2.04 3.38 3.38 0 0 1 2.18-.72 2.928 2.928 0 0 1 2 .7 2.443 2.443 0 0 1 .8 1.94v.4a6.421 6.421 0 0 1 2.5-2.32 7.48 7.48 0 0 1 3.5-.8 6.944 6.944 0 0 1 3.58.86 5.566 5.566 0 0 1 2.26 2.78 6.788 6.788 0 0 1 2.62-2.66 7.588 7.588 0 0 1 3.86-.98zM117.8-5.84a1.574 1.574 0 0 1 1.3.64 2.585 2.585 0 0 1 .5 1.64 2.175 2.175 0 0 1-.4 1.26 3.237 3.237 0 0 1-1.12.98 14.33 14.33 0 0 1-3.16 1.18 13.481 13.481 0 0 1-3.32.46 11.916 11.916 0 0 1-5.58-1.24 8.682 8.682 0 0 1-3.66-3.54 10.97 10.97 0 0 1-1.28-5.42 11.112 11.112 0 0 1 1.24-5.32 9.09 9.09 0 0 1 3.44-3.62 9.641 9.641 0 0 1 5-1.3 9.147 9.147 0 0 1 4.7 1.18 8.056 8.056 0 0 1 3.14 3.36 11.017 11.017 0 0 1 1.12 5.1 1.922 1.922 0 0 1-.42 1.34 1.517 1.517 0 0 1-1.18.46h-11.2a5.333 5.333 0 0 0 1.44 3.42 4.751 4.751 0 0 0 3.32 1.06 7.138 7.138 0 0 0 2.08-.28 20.1 20.1 0 0 0 2.04-.76q.56-.24 1.08-.42a2.861 2.861 0 0 1 .92-.18zm-6.88-10.12a3.62 3.62 0 0 0-2.76 1.1 5.22 5.22 0 0 0-1.24 3.18h7.72a5.221 5.221 0 0 0-1.06-3.2 3.338 3.338 0 0 0-2.66-1.08z" transform="translate(452 -214)"/></svg>