<svg xmlns="http://www.w3.org/2000/svg" viewBox="183 1340 100 67.532"><defs><style>.cls-1{fill:#a013a7}.cls-1,.cls-2,.cls-6{fill-rule:evenodd}.cls-2{fill:#00075f}.cls-3{fill:#fcbfff}.cls-4{fill:#0010d8}.cls-5{fill:#420745}.cls-6{fill:none;stroke:#a013a7;stroke-linecap:round;stroke-linejoin:round;stroke-miterlimit:1.5}</style></defs><g id="tech_icon" transform="translate(183 1324)"><path id="Path_1" data-name="Path 1" class="cls-1" d="M95.656 3.211h.779l.048.006.047.006.047.006.048.006.047.006.047.007.047.007.047.007.047.007.047.008.047.008.046.053.047.009.046.009.046.009.046.01.046.01.046.01.046.011.045.011.046.011.046.011.048.012.089.023.091.025.09.026.09.027.089.028.089.03.088.031.088.031.087.032.087.033.086.035.086.036.085.036.085.038.084.038.083.04.081.04.082.042.082.043.081.043.08.044.08.045.08.046.079.047.078.048.077.049.077.05.076.051.076.052.075.053.074.054.073.054.073.055.072.056.072.057.07.057.07.058.069.06.069.06.068.061.067.062.067.063.065.063.065.064.064.065.063.066.063.066.062.067.061.068.06.069.059.069.058.07.058.071.057.072.056.072.055.072.054.074.054.074.053.075.052.076.051.076.05.077.049.077.048.078.047.079.046.079.046.08.044.081.044.081.043.082.041.082.041.083.04.084.039.084.038.085.036.084.036.086.035.087.033.086.033.087.031.088.03.088.03.089.028.089.028.089.026.091.025.091.023.088.012.048.012.046.011.046.011.046.01.047.01.046.01.046.01.046.009.047.009.047.008.045.009.047.008.047.008.046.008.047.007.047.007.047.007.049.006.047.006.047.006.049.006.047.006.048V63.96l-.006.048-.006.047-.006.049-.006.047-.006.047-.007.049-.007.047-.007.047-.008.047-.008.046-.008.047-.009.047-.008.045-.009.047-.009.047-.01.046-.01.046-.01.046-.011.047-.011.045-.011.046-.012.046-.012.048-.023.089-.025.09-.026.091-.028.09-.028.089-.03.089-.03.088-.031.088-.033.087-.033.086-.035.087-.036.086-.036.084-.038.085-.039.084-.04.083-.041.083-.041.082-.043.082-.043.081-.044.081-.046.08-.046.079-.047.079-.048.078-.049.077-.05.077-.051.076-.052.076-.053.075-.053.074-.055.074-.055.072-.056.072-.057.072-.058.071-.058.07-.059.069-.06.069-.061.068-.062.067-.063.066-.063.066-.064.065-.065.064-.065.063-.067.063-.067.062-.068.061-.069.06-.069.059-.07.058-.07.058-.071.057-.072.056-.073.055-.073.054-.074.054-.075.053-.075.052-.076.051-.077.05-.077.049-.078.048-.079.047-.08.046-.08.045-.08.044-.081.043-.082.043-.082.042-.083.041-.083.04-.084.038-.085.038-.085.036-.086.036-.086.035-.087.033-.087.033-.088.031-.088.031-.089.029-.089.029-.09.027-.09.026-.091.025-.089.023-.048.012-.046.011-.046.011-.045.01-.046.011-.047.01-.046.01-.046.01-.046.009-.046.009-.046.011-.047.008-.046.008-.047.008-.047.007-.047.007-.048.007-.047.007-.047.006-.048.006-.047.006-.047.006-.048.006H9.995l-.048-.006-.047-.004-.047-.006-.053-.006-.047-.006-.047-.007-.048-.007-.047-.007-.047-.007-.047-.008-.046-.008-.047-.008-.047-.009-.046-.009-.046-.009-.046-.01-.047-.01-.047-.01-.046-.01-.046-.011-.046-.011-.046-.011-.046-.018-.089-.023-.091-.025-.09-.026-.09-.027-.089-.029-.088-.029-.089-.031-.089-.028-.087-.033-.087-.033-.086-.035-.086-.036-.085-.036-.085-.038-.084-.039-.084-.04-.083-.041-.082-.041-.082-.043-.081-.044-.08-.044-.08-.045-.079-.046-.078-.047-.078-.048-.078-.049-.077-.05-.076-.051-.075-.052-.075-.053-.074-.054-.073-.054-.073-.055-.072-.056-.071-.056-.071-.058-.07-.058-.069-.059-.069-.06-.07-.061-.067-.062-.066-.062-.067-.063-.065-.064-.064-.065-.063-.066-.063-.066-.061-.067-.061-.068-.06-.069-.059-.069-.058-.07-.055-.076-.056-.071-.056-.072-.056-.073-.054-.073-.054-.074-.053-.075-.052-.075-.051-.077-.05-.077-.049-.077-.048-.078L4.267 67l-.046-.08-.045-.08-.044-.081-.043-.081-.044-.078L4 66.519l-.04-.083-.04-.083-.039-.084-.038-.085-.033-.084-.036-.086-.034-.086-.034-.086-.032-.088-.032-.088-.03-.088-.03-.089-.029-.09-.027-.089-.026-.09-.025-.091-.024-.09-.012-.048-.011-.044-.011-.047-.011-.047-.006-.045-.01-.046-.01-.046-.01-.047-.009-.046-.009-.046-.009-.046-.009-.047-.008-.047-.008-.046-.007-.047L3.3 64.3l-.007-.048-.008-.052-.006-.047-.006-.047-.006-.048-.006-.049-.005-.047V9.994l.005-.047.005-.047.006-.048.006-.052.006-.047.007-.048.009-.046.007-.047.007-.047.008-.046.008-.047.009-.047.009-.046.009-.046.009-.046.01-.047.01-.046.01-.046.01-.048.011-.047.011-.046.011-.044.012-.048.024-.089.025-.091.026-.09.027-.089.029-.09.03-.089.03-.088.031-.089.033-.088.034-.086.034-.086.036-.086.036-.085.038-.085.039-.084.04-.083L4 7.436l.042-.082.043-.082.043-.081.044-.081.045-.08.046-.08.047-.079.048-.078.049-.078.05-.077.051-.076.052-.076.053-.075.054-.074.054-.073.055-.073.056-.072.056-.071.058-.071.058-.07.059-.069.06-.069.065-.069.061-.067.063-.066.063-.067.064-.065.061-.06.066-.064.066-.062.068-.061.068-.061.069-.06.069-.059.07-.058.07-.057.071-.057.072-.056.073-.055.073-.054.074-.054.075-.053.076-.052.08-.052.077-.05.078-.049.078-.048.079-.047.079-.046.08-.045.08-.044.081-.044.082-.043L7.436 4l.083-.041.083-.04.084-.038.085-.038.085-.036.086-.036.086-.035.087-.033.085-.03.088-.031.088-.031.089-.03.089-.028.09-.027.09-.026.091-.025.089-.023.048-.012.046-.011.046-.011.046-.012.046-.006.046-.01.047-.01.046-.01.046-.009.047-.009.046-.009.047-.008.047-.008.047-.008.047-.007.048-.012.047-.007.047-.007.046-.008.048-.006.052-.006.047-.006.048-.006h85.661zm-84.84 1.3h-.804l-.04.005-.039.006-.033.055-.039.006-.039.006-.039.006-.044.005-.039.008-.039.007-.039.007-.039.007-.038.008-.039.008-.038.008-.038.008-.038.009-.038.009-.038.009-.037.012-.038.01-.075.02-.075.021-.075.022-.074.023-.074.023-.073.024-.073.025-.072.026-.072.027-.078.026-.071.029-.071.029-.07.031-.07.031-.07.032-.069.033-.069.033-.064.035-.068.035-.067.036-.067.037-.066.038-.066.038-.065.039-.065.04-.064.037-.064.041-.063.042-.063.043-.062.044-.066.048-.061.045-.06.046-.06.046-.055.045-.059.048L6.747 6l-.057.049-.057.05-.056.05-.056.051-.055.052-.055.048-.054.053-.057.058-.053.055-.047.055-.051.056-.05.056-.05.057L6 6.747l-.048.058-.052.059-.047.059-.046.06-.046.06-.043.057-.044.061-.044.062-.043.063-.042.063-.045.069-.041.064-.04.065-.039.065-.038.066-.038.066-.037.067-.036.067-.031.068-.034.068-.033.069-.033.069-.032.07-.031.07-.031.07-.029.071-.03.067-.028.072-.027.072-.026.072-.025.073-.024.073-.023.074-.023.074-.022.075-.021.075-.02.075-.01.038-.009.038-.009.038-.009.038-.009.038-.008.038-.008.038-.008.039-.008.038-.007.039-.007.039-.007.044-.009.039-.007.039-.006.039-.006.039-.004.044-.006.039-.006.039-.005.04v53.93l.005.039.006.039.006.039.006.039.006.039.006.039.007.039.007.039.007.039.007.039.007.039.008.039.008.038.008.038.008.038.009.038.009.038.009.038.009.038.01.038.02.075.021.075.022.075.023.074.023.074.024.073.025.073.026.073.027.072.028.072.029.071.029.071.031.07.031.07.032.07.033.069.033.069.034.068.035.068.036.067.037.067.038.066.038.066.039.065.04.065.041.064.041.064.042.063.043.063.044.062.044.061.045.061.046.06.046.06.047.059.048.059.051.053.049.057.05.057.05.056.051.056.052.055.053.055.053.054.054.053.055.053.055.052.056.051.056.051.057.05.057.049.058.044.059.048.059.047.06.046.06.046.061.045.061.044.062.044.063.043.063.042.064.041.064.041.065.04.065.039.066.038.066.038.067.037.067.036.068.035.068.034.069.034.069.033.07.032.07.031.07.031.071.03.071.029.072.028.072.027.072.026.073.025.073.024.074.023.074.023.075.022.075.021.075.02.038.01.038.009.038.009.038.009.038.009.038.008.038.008.039.008.038.008.039.007.039.007.039.007.039.007.039.006.039.006.039.006.039.006.039.006.039.005.04.005H96.41l.039-.005.039-.005.039-.006.039-.006.039-.006.039-.006.039-.006.039-.007.039-.007.039-.007.039-.007.039-.008.038-.008.038-.008.038-.008.038-.009.038-.009.038-.009.038-.009.038-.01.075-.02.075-.021.075-.022.074-.023.074-.023.073-.024.073-.025.073-.026.072-.027.072-.028.071-.029.071-.03.07-.031.07-.031.07-.032.069-.033.069-.034.068-.034.068-.035.067-.036.067-.037.066-.038.066-.038.065-.039.065-.04.06-.036.064-.041.063-.042.063-.043.062-.044.061-.044.061-.045.06-.046.06-.046.059-.047.064-.053.058-.049.057-.049.057-.05.056-.051.056-.051.055-.052.055-.053.054-.053.053-.054.053-.055.052-.055.051-.056.051-.056.05-.057.049-.057.049-.058.048-.059.047-.059.046-.06.046-.06.045-.061.044-.061.044-.062.043-.063.042-.063.041-.064.041-.064.04-.065.039-.065.038-.066.038-.066.037-.067.036-.067.035-.068.034-.068.034-.069.033-.069.032-.07.031-.07.031-.07.03-.071.029-.071.028-.072.027-.072.026-.073.025-.073.024-.073.023-.074.023-.074.022-.075.021-.075.02-.075.01-.038.009-.038.009-.038.009-.038.009-.038.008-.038.008-.038.008-.038.008-.039.007-.039.007-.039.007-.039.007-.039.006-.039.006-.039.006-.039.006-.039.006-.039.005-.039.005-.039V10.012l-.005-.04-.005-.039-.006-.039-.006-.039-.006-.039-.006-.039-.006-.039-.007-.039-.007-.039-.007-.039-.007-.039-.008-.038-.008-.039-.008-.038-.008-.038-.009-.038-.009-.038-.009-.038-.009-.038-.01-.038-.02-.075-.021-.075-.022-.075-.023-.074-.023-.074-.024-.073-.025-.073-.026-.072-.027-.072-.028-.072-.029-.071-.03-.071-.031-.07-.031-.07-.032-.07-.033-.069-.034-.069-.034-.068-.035-.068-.036-.067-.037-.067-.038-.066-.038-.066-.039-.065-.04-.065-.041-.064-.041-.064-.042-.063-.043-.063-.044-.062-.049-.066-.045-.061-.046-.06-.046-.06-.047-.059-.048-.059-.049-.058-.049-.057-.05-.057-.051-.056-.051-.056-.052-.055-.053-.055-.053-.054-.054-.053-.055-.053L99.9 6.2l-.056-.051-.056-.05-.057-.05L99.675 6l-.058-.048-.059-.052-.058-.044-.06-.046-.06-.046-.061-.045-.061-.044-.062-.044-.063-.043-.063-.042L99 5.5l-.064-.041-.065-.04-.065-.039-.066-.038-.066-.038-.067-.037-.067-.036-.064-.031-.068-.034-.069-.033-.069-.033-.07-.032-.07-.031-.07-.031-.071-.029-.071-.029-.072-.028-.072-.027-.074-.026-.073-.025-.073-.024-.074-.023-.074-.023-.075-.022-.075-.021-.075-.02-.038-.01-.038-.009-.038-.009-.038-.009-.038-.009-.038-.008-.038-.008-.038-.008-.039-.008-.038-.008-.039-.007-.039-.007-.039-.009-.039-.007-.039-.006-.039-.006-.039-.006-.039-.006-.039-.006-.039-.005H10.816z" transform="translate(-3.211 12.789)"/><path id="Path_2" data-name="Path 2" class="cls-2" d="M109.172 86.761v.377l-.005.048-.006.047-.006.047-.007.047-.007.048-.008.047-.008.047-.009.047-.009.046-.01.046-.011.047-.011.046-.012.046-.012.046-.013.045-.013.046-.014.045-.015.044-.015.045-.016.045-.016.044-.017.044-.017.044-.018.044-.019.044-.019.043-.019.044-.02.043-.02.043-.021.043-.021.042-.022.042-.023.042-.023.041-.024.042-.024.041-.024.041-.025.04-.026.04-.026.04-.027.039-.027.039-.028.039-.028.038-.029.038-.029.038-.03.037-.03.037-.03.037-.031.037-.031.036-.032.036-.033.036-.033.035-.033.035-.034.034-.034.034-.035.033-.035.033-.036.032-.036.032-.036.032-.037.031-.037.031-.037.03-.037.03-.038.029-.038.029-.039.028-.039.028-.039.027-.039.026-.04.026-.04.026-.04.025-.041.025-.041.024-.042.024-.042.023-.042.022-.042.022-.042.021-.043.021-.043.02-.043.02-.043.019-.043.019-.044.018-.044.018-.044.018-.044.017-.045.017-.044.016-.045.015-.045.015-.045.014-.045.014-.046.013-.045.012-.046.012-.046.011-.046.011-.046.01-.047.009-.046.009-.047.008-.047.008-.047.007-.047.007-.047.006-.047.006-.047.005H23.677l-.047-.006-.048-.006-.047-.007-.047-.007-.047-.008-.047-.008-.047-.009-.047-.009-.047-.01-.046-.011-.046-.011-.046-.012-.046-.012-.046-.013-.045-.014-.046-.014-.045-.015-.045-.015-.045-.016-.044-.016-.044-.017-.045-.018-.044-.018-.044-.018-.044-.019-.044-.019-.043-.02-.043-.02-.043-.021-.043-.022-.042-.022-.042-.023-.042-.023-.041-.024-.041-.024-.041-.025-.041-.025-.04-.026-.04-.026-.04-.027-.039-.027-.039-.028-.039-.028-.039-.029-.038-.029-.037-.03-.038-.03-.037-.031-.037-.031-.036-.031-.036-.032-.036-.033-.035-.033-.035-.033-.035-.034-.034-.034-.033-.035-.033-.035-.033-.036-.032-.036-.031-.036-.031-.037-.031-.037-.03-.037-.03-.038L21 89.1l-.029-.038-.028-.039-.028-.039-.027-.039-.027-.04-.027-.04-.026-.04-.025-.04-.025-.041-.018-.044-.023-.041-.023-.041-.023-.042-.022-.042-.022-.042-.021-.043-.02-.043-.02-.043-.02-.044-.019-.044-.019-.044-.018-.044-.018-.044-.017-.044-.017-.044-.016-.045-.015-.045-.015-.045-.014-.045-.014-.045-.013-.046-.012-.046-.012-.046-.011-.047-.011-.046-.01-.047-.01-.047-.009-.047-.008-.047-.008-.047-.007-.047-.007-.047-.006-.048-.006-.047V39.879h88.961v46.882zM20.86 40.528v46.614l.005.04.006.04.006.04.006.039.007.039.007.039.008.039.008.039.009.039.009.039.01.038.01.038.011.038.011.038.012.038.012.038.013.037.013.037.014.037.014.037.015.037.015.037.015.036.016.036.016.036.017.036.017.036.018.036.018.035.019.035.019.035.019.035.02.034.02.034.02.034.021.034.021.033.022.033.022.033.023.033.023.032.024.032.024.032.024.032.025.031.025.031.026.031.026.031.026.03.027.03.027.03.027.029.028.029.028.029.029.029.029.028.029.028.03.027.03.027.03.026.031.026.031.026.031.025.031.025.031.024.032.024.032.023.032.023.032.023.033.022.033.022.034.021.034.021.034.021.034.02.035.02.034.019.035.019.035.019.035.018.035.018.036.017.036.017.036.016.036.016.036.015.037.015.037.015.037.014.037.014.037.013.038.013.038.012.038.012.038.011.038.011.038.01.039.01.039.009.039.009.039.008.039.008.039.007.039.007.039.007.039.006.04.006.04.005h81.984l.039-.005.039-.006.039-.006.039-.006.039-.007.039-.007.039-.008.039-.008.039-.009.038-.009.038-.01.038-.01.038-.011.038-.011.038-.012.037-.012.037-.013.037-.013.037-.013.037-.014.037-.015.037-.015.036-.015.036-.016.036-.016.036-.017.035-.017.035-.017.035-.018.035-.018.035-.019.034-.019.034-.02.034-.02.034-.02.033-.021.033-.021.033-.022.033-.022.032-.023.032-.023.032-.024.032-.024.031-.024.031-.024.031-.025.031-.026.03-.026.03-.026.03-.027.03-.027.029-.027.029-.028.029-.028.028-.029.028-.029.027-.029.027-.03.027-.03.026-.03.026-.03.025-.031.025-.031.024-.031.024-.032.024-.032.023-.032.023-.032.023-.032.022-.033.022-.033.021-.033.021-.033.02-.034.02-.034.02-.034.019-.034.019-.035.018-.035.018-.035.017-.035.017-.035.017-.036.016-.036.016-.036.016-.036.015-.036.015-.037.014-.037.013-.037.013-.037.012-.038.012-.037.012-.038.011-.038.011-.038.01-.038.01-.038.009-.038.009-.038.008-.039.008-.039.007-.039.007-.039.006-.039.006-.039.006-.039.005-.039V40.528H20.86z" transform="translate(-14.692 -11.974)"/><circle id="Ellipse_2" data-name="Ellipse 2" class="cls-3" cx="1.621" cy="1.621" r="1.621" transform="translate(6.148 21.929)"/><circle id="Ellipse_3" data-name="Ellipse 3" class="cls-4" cx="1.621" cy="1.621" r="1.621" transform="translate(12.657 21.913)"/><circle id="Ellipse_4" data-name="Ellipse 4" class="cls-5" cx="1.621" cy="1.621" r="1.621" transform="translate(19.144 21.913)"/><g id="Group_2" data-name="Group 2" transform="translate(15.988 37.981)"><path id="Path_3" data-name="Path 3" class="cls-6" d="M67.758 105.777l-15.3-11.364 15.3-11.364" transform="translate(-52.454 -79.11)"/><path id="Path_4" data-name="Path 4" class="cls-6" d="M213.562 105.777l15.3-11.364-15.3-11.364" transform="translate(-161.254 -79.11)"/><path id="Path_5" data-name="Path 5" class="cls-1" d="M150.507 72a.812.812 0 0 0-1.526-.556l-10.549 28.984a.812.812 0 1 0 1.526.555L150.507 72z" transform="translate(-110.484 -70.914)"/></g></g></svg>